<svg xmlns="http://www.w3.org/2000/svg" width="430" height="430" style="width:100%;height:100%;transform:translate3d(0,0,0);content-visibility:visible" viewBox="0 0 430 430"><defs><clipPath id="a"><path d="M0 0h430v430H0z"/></clipPath><clipPath id="c"><path d="M0 0h430v430H0z"/></clipPath><clipPath id="b"><path d="M0 0h430v430H0z"/></clipPath></defs><g clip-path="url(#a)"><g clip-path="url(#b)" style="display:block"><path fill="none" stroke="#92140C" stroke-linecap="round" stroke-linejoin="round" stroke-width="7" d="M375.119 219.364h26.686M112.5 224.059H28.194" class="secondary" style="display:block"/><g fill="#F24C00" style="display:block"><path d="M270.012 195.841h-68.14l-60.9-126.58h37.28c18.87 0 36.07 10.82 44.25 27.82l25.23 52.45" class="primary"/><path d="M71.512-59.659H3.372l-60.9-126.58h37.28c18.87 0 36.07 10.82 44.25 27.82l25.23 52.45" class="primary" opacity=".5" style="mix-blend-mode:multiply" transform="translate(198.5 255.5)"/></g><path fill="none" stroke="#92140C" stroke-linecap="round" stroke-linejoin="round" stroke-width="7" d="M0-32.333v64.666" class="secondary" style="display:block" transform="translate(401.806 219.364)"/><g style="display:block"><path fill="#F24C00" d="M75.568 133.989H41.951l14.501 66.286 58.619-.5z" class="primary"/><path fill="#3A3347" d="M275.771 148.88v46.32m-38.904-46.322h49.812c7.602 0 16.165 5.198 19.568 12.573l15.571 33.743h-120.09l15.571-33.743c3.403-7.375 11.966-12.573 19.568-12.573" class="tertiary"/><path fill="#3A3347" d="M-.592-23.198v.002h-1.291c-7.602 0-16.165 5.199-19.568 12.574L-37.022 23.12h36.43v.078h37.614v-46.396z" class="tertiary" opacity=".5" style="mix-blend-mode:multiply" transform="translate(238.75 172.04)"/><path fill="#F24C00" d="m256.561 263.09 53.18 4.2c34.87 2.75 65.45-16.05 65.45-41.98v-18.03c0-3.43-.8-6.53-2.91-8.72-3.05-3.18-7.73-3.27-9.62-3.28-9.2-.06-135.05-.16-307.71 0v34.86l17.46 18.39 122.77 9.7" class="primary"/><path fill="#F24C00" d="m-23.662-28.334-.375 35.359 17.46 18.391 30.614 2.418L8.712 10.218v-38.045" class="primary" opacity=".5" style="mix-blend-mode:multiply" transform="translate(78.988 223.11)"/><path fill="#F24C00" d="M-1 12.647 9.893-12.999-9.893 12.999z" class="primary" opacity=".5" style="mix-blend-mode:multiply" transform="translate(196.181 245.582)"/><path fill="#F24C00" d="m14.648 3.385-57.252-4.431-.089-16.423h-12.956v30.507l13.127 1.004 40.005 3.16c24.614 1.941 47.074-6.864 58.166-21.326C44.253 1.681 29.86 4.584 14.648 3.385" class="primary" opacity=".5" style="mix-blend-mode:multiply" transform="translate(312.218 250.052)"/><path fill="#F24C00" d="M263.323 260.479" class="primary"/></g><path fill="none" stroke="#92140C" stroke-linecap="round" stroke-linejoin="round" stroke-width="7" d="M112.5 224.059H28.194" class="secondary" style="display:block"/><path fill="#F24C00" d="M-28.359 64.52h-30.769L-4.322-64.52h63.45l-42.03 98.96a49.39 49.39 0 0 1-45.457 30.08" class="primary" style="display:block" transform="translate(210.289 296.714)"/></g><g clip-path="url(#c)" style="display:none"><g style="display:none"><path class="primary"/><path class="primary" style="mix-blend-mode:multiply"/></g><path fill="none" class="secondary" style="display:none"/><path fill="none" class="secondary" style="display:none"/><g style="display:none"><path class="primary"/><path class="tertiary"/><path class="tertiary"/><path class="tertiary" style="mix-blend-mode:multiply"/><path class="primary"/><path class="primary"/><path class="primary" style="mix-blend-mode:multiply"/><path class="primary" style="mix-blend-mode:multiply"/><path class="primary" style="mix-blend-mode:multiply"/><path class="primary"/></g><path fill="none" class="secondary" style="display:none"/><path class="primary" style="display:none"/></g></g></svg>